<svg width="238" height="238" viewBox="0 0 238 238" fill="none" xmlns="http://www.w3.org/2000/svg">
<path d="M97.7479 30.3489C100.595 22.2683 111.18 20.3991 116.615 27.0169L145.103 61.7036C148.627 65.9956 153.844 68.5388 159.393 68.6742L204.264 69.7676C212.831 69.9762 217.862 79.4627 213.252 86.6745L189.067 124.509C187.588 126.822 186.624 129.427 186.242 132.146C185.859 134.865 186.067 137.636 186.85 140.267L199.658 183.296C202.099 191.494 194.644 199.236 186.347 197.077L142.911 185.774C140.256 185.083 137.484 184.972 134.782 185.449C132.082 185.925 129.514 186.979 127.255 188.538L90.3003 214.038C83.2404 218.908 73.5915 214.187 73.0843 205.647L70.426 160.827C70.097 155.279 67.3718 150.153 62.9614 146.779L27.313 119.51C20.5184 114.312 22.0068 103.674 29.9854 100.544L71.7773 84.1463C76.9452 82.1186 80.9784 77.9419 82.8247 72.7014L97.7479 30.3489Z" fill="#FFAFF3"/>
<path d="M105.498 19.2425C100.434 20.137 95.8041 23.5046 93.8873 28.9435L78.9555 71.3124C77.4997 75.4431 74.3243 78.7319 70.2481 80.3313L28.4361 96.7363C17.7069 100.946 15.6322 115.725 24.7788 122.721L60.4429 149.998C62.1601 151.31 63.5744 152.978 64.5892 154.888C65.6039 156.797 66.1954 158.904 66.3231 161.063L68.9812 205.9C69.6631 217.403 83.061 223.947 92.5554 217.398L92.5556 217.397L129.53 191.888V191.887C131.31 190.658 133.334 189.827 135.463 189.451C137.592 189.075 139.778 189.163 141.87 189.708L185.326 201.013C196.483 203.917 206.839 193.177 203.551 182.133V182.134L190.739 139.09C190.122 137.017 189.958 134.835 190.26 132.692C190.561 130.55 191.32 128.499 192.487 126.678V126.677L216.684 88.8263L216.683 88.8261C222.89 79.1188 215.894 65.9424 204.375 65.6618L159.482 64.5697C155.106 64.4632 150.999 62.4605 148.221 59.0778L119.721 24.3783C116.063 19.9244 110.562 18.3458 105.497 19.2404M106.86 26.9843C109.162 26.5778 111.676 27.374 113.455 29.5402L141.954 64.2387C146.228 69.4429 152.559 72.5283 159.284 72.6921L204.177 73.7842C209.798 73.9209 212.869 79.7245 209.85 84.4457L185.653 122.296C182.024 127.971 181.042 134.954 182.963 141.411L195.776 184.454C197.371 189.815 192.809 194.565 187.365 193.149L143.91 181.843C137.398 180.148 130.465 181.373 124.925 185.197L87.9508 210.706C83.3183 213.903 77.4098 211.001 77.0783 205.418L74.4205 160.581C74.0217 153.854 70.7132 147.63 65.3658 143.539L29.7018 116.262C25.2535 112.86 26.1579 106.355 31.3933 104.3L73.2051 87.8947C79.4697 85.4367 84.3649 80.3688 86.6045 74.0141L101.536 31.6451C102.468 29.0003 104.559 27.3908 106.86 26.9843Z" fill="#151515"/>
<path d="M92.3886 132.885C96.7391 132.165 99.6441 128.276 98.8772 124.198C98.1102 120.119 93.9618 117.396 89.6114 118.115C85.2609 118.835 82.3559 122.724 83.1228 126.802C83.8898 130.88 88.0383 133.604 92.3886 132.885Z" fill="#151515"/>
<path d="M157.389 121.877C161.739 121.11 164.645 116.961 163.877 112.611C163.11 108.26 158.962 105.356 154.611 106.123C150.261 106.89 147.356 111.039 148.123 115.389C148.89 119.74 153.039 122.645 157.389 121.877Z" fill="#151515"/>
<path d="M118.507 131.554C118.027 131.753 117.589 132.051 117.215 132.432C116.843 132.812 116.544 133.268 116.336 133.772C116.128 134.278 116.014 134.821 116.001 135.373C115.988 135.925 116.078 136.474 116.263 136.989C116.746 138.331 117.471 139.559 118.396 140.601C119.322 141.644 120.429 142.479 121.656 143.062L121.657 143.063C122.883 143.645 124.203 143.962 125.543 143.997H125.544H125.546C126.886 144.031 128.219 143.782 129.469 143.263H129.47C130.721 142.745 131.864 141.968 132.835 140.975H132.836V140.973C133.806 139.981 134.585 138.793 135.127 137.478C135.672 136.161 135.968 134.741 135.999 133.302C136.023 132.188 135.635 131.108 134.918 130.301C134.2 129.495 133.214 129.028 132.175 129.001C131.661 128.988 131.15 129.084 130.67 129.283C130.19 129.483 129.751 129.781 129.379 130.163C129.007 130.543 128.708 130.999 128.501 131.505C128.293 132.009 128.179 132.553 128.168 133.105C128.16 133.438 128.091 133.767 127.965 134.072V134.073L127.964 134.075C127.838 134.381 127.656 134.657 127.431 134.889C127.205 135.12 126.94 135.301 126.649 135.42L126.647 135.421C126.355 135.542 126.045 135.6 125.732 135.593C125.421 135.584 125.113 135.51 124.828 135.374H124.826L124.825 135.373C124.54 135.237 124.284 135.044 124.068 134.802V134.801C123.853 134.559 123.685 134.274 123.572 133.961C123.387 133.446 123.109 132.975 122.754 132.575C122.399 132.176 121.975 131.855 121.504 131.632C121.034 131.408 120.526 131.286 120.012 131.272C119.498 131.259 118.987 131.354 118.507 131.554Z" fill="#151515"/>
</svg>
