<svg width="196" height="196" viewBox="0 0 196 196" fill="none" xmlns="http://www.w3.org/2000/svg">
<path d="M78.0024 16.9822C80.6044 9.59928 90.2772 7.89148 95.2443 13.938L121.277 45.6299C124.498 49.5513 129.265 51.875 134.336 51.9986L175.341 52.9976C183.169 53.1882 187.767 61.8557 183.555 68.4449L161.454 103.013C160.102 105.126 159.221 107.506 158.872 109.991C158.522 112.475 158.711 115.006 159.428 117.411L171.131 156.724C173.362 164.214 166.549 171.288 158.967 169.315L119.274 158.988C116.848 158.357 114.314 158.256 111.846 158.692C109.378 159.127 107.031 160.089 104.967 161.514L71.1965 184.812C64.7449 189.262 55.9274 184.949 55.464 177.146L53.0347 136.195C52.734 131.127 50.2436 126.442 46.2133 123.36L13.6364 98.4453C7.42732 93.6966 8.78742 83.9769 16.0786 81.1166L54.2696 66.1349C58.9922 64.2823 62.6778 60.4662 64.3651 55.6782L78.0024 16.9822Z" fill="#FFAFF3"/>
<path d="M85.1247 6.89114C80.4983 7.70809 76.2696 10.7837 74.5187 15.7511L60.8795 54.4465C59.5497 58.2191 56.6491 61.2228 52.9258 62.6835L14.7333 77.6661C4.93289 81.5108 3.03773 95.0083 11.3925 101.398L43.9694 126.31C45.5379 127.508 46.8298 129.031 47.7568 130.776C48.6837 132.52 49.2239 134.444 49.3406 136.416L51.7686 177.366C52.3915 187.871 64.6296 193.848 73.3021 187.867L73.3023 187.866L107.076 164.568V164.567C108.702 163.445 110.551 162.686 112.495 162.343C114.44 161.999 116.437 162.079 118.348 162.577L158.042 172.902C168.234 175.554 177.693 165.746 174.689 155.659V155.66L162.987 116.348C162.423 114.454 162.273 112.462 162.548 110.505C162.824 108.549 163.517 106.675 164.583 105.012V105.011L186.686 70.442L186.685 70.4418C192.354 61.5762 185.964 49.5421 175.442 49.2858L134.435 48.2884C130.438 48.1912 126.686 46.3621 124.149 43.2727L98.116 11.5817C94.7746 7.51391 89.7501 6.07218 85.1234 6.88919M86.3688 13.9617C88.4712 13.5905 90.7671 14.3177 92.3925 16.296L118.425 47.9861C122.328 52.7391 128.112 55.557 134.254 55.7066L175.261 56.7041C180.396 56.8289 183.201 62.1293 180.443 66.4412L158.341 101.01C155.025 106.192 154.129 112.57 155.883 118.467L167.587 157.779C169.044 162.675 164.877 167.013 159.905 165.72L120.211 155.394C114.263 153.846 107.93 154.965 102.869 158.457L69.0961 181.755C64.8646 184.674 59.4676 182.024 59.1648 176.925L56.737 135.975C56.3728 129.832 53.3507 124.148 48.4662 120.411L15.8894 95.4993C11.8262 92.392 12.6523 86.4508 17.4345 84.574L55.6269 69.5912C61.3491 67.3463 65.8206 62.7177 67.8663 56.914V56.9138L81.5056 18.2184C82.3571 15.8029 84.2659 14.3332 86.3683 13.9619" fill="#151515"/>
<path d="M73.2414 111.123C77.2003 110.423 79.8439 106.643 79.1459 102.68C78.448 98.7153 74.673 96.0692 70.7141 96.7682C66.7552 97.4674 64.1116 101.248 64.8095 105.211C65.5074 109.175 69.2826 111.822 73.2414 111.123Z" fill="#151515"/>
<path d="M131.887 100.768C135.845 100.069 138.489 96.2889 137.79 92.3251C137.093 88.3613 133.318 85.7146 129.359 86.4138C125.4 87.1128 122.756 90.8928 123.454 94.8567C124.153 98.8208 127.927 101.467 131.887 100.768Z" fill="#151515"/>
<path d="M96.5356 109.498C96.0817 109.674 95.6667 109.937 95.3138 110.273C94.9617 110.609 94.6783 111.011 94.4819 111.456C94.2846 111.903 94.1771 112.382 94.1651 112.869C94.153 113.356 94.2373 113.841 94.4124 114.296C94.87 115.48 95.5555 116.564 96.431 117.484C97.3064 118.404 98.3541 119.141 99.5148 119.655L99.5158 119.656C100.675 120.17 101.923 120.45 103.192 120.481H103.193H103.194C104.462 120.511 105.722 120.291 106.905 119.833H106.906C108.089 119.376 109.171 118.69 110.089 117.813H110.09V117.812C111.008 116.937 111.745 115.888 112.258 114.727C112.773 113.565 113.053 112.312 113.082 111.041C113.106 110.058 112.738 109.105 112.06 108.393C111.381 107.681 110.448 107.268 109.465 107.245C108.979 107.233 108.495 107.319 108.041 107.494C107.587 107.67 107.172 107.934 106.82 108.27C106.468 108.606 106.186 109.009 105.989 109.455C105.793 109.9 105.685 110.38 105.674 110.867C105.667 111.161 105.602 111.452 105.482 111.721V111.722L105.482 111.724C105.362 111.994 105.191 112.237 104.978 112.442C104.764 112.646 104.513 112.805 104.237 112.911L104.236 112.912C103.96 113.019 103.666 113.07 103.37 113.063C103.076 113.056 102.785 112.99 102.515 112.87H102.513L102.513 112.869C102.243 112.75 102 112.579 101.796 112.365V112.365C101.593 112.15 101.433 111.899 101.327 111.623C101.152 111.168 100.889 110.752 100.553 110.4C100.217 110.047 99.8159 109.764 99.3703 109.567C98.9257 109.369 98.4458 109.262 97.9595 109.25C97.4731 109.238 96.9896 109.322 96.5356 109.498Z" fill="#151515"/>
</svg>
