<svg width="166" height="159" viewBox="0 0 166 159" fill="none" xmlns="http://www.w3.org/2000/svg">
<path d="M66.402 10.188C68.617 3.91056 76.8513 2.45847 81.0797 7.5996L103.241 34.5462C105.983 37.8805 110.041 39.8562 114.358 39.9613L149.264 40.8108C155.929 40.9728 159.843 48.3425 156.257 53.9451L137.442 83.337C136.292 85.1336 135.542 87.1574 135.245 89.2703C134.947 91.3824 135.108 93.5347 135.718 95.579L145.681 129.006C147.58 135.375 141.781 141.389 135.326 139.712L101.536 130.931C99.4706 130.394 97.3138 130.308 95.2122 130.679C93.1114 131.049 91.1139 131.867 89.3569 133.079L60.6083 152.888C55.1161 156.672 47.6099 153.004 47.2154 146.37L45.1474 111.551C44.8915 107.241 42.7714 103.258 39.3405 100.638L11.6084 79.4534C6.32268 75.4158 7.48051 67.1514 13.6873 64.7194L46.1987 51.981C50.2189 50.4057 53.3565 47.1611 54.7928 43.0899L66.402 10.188Z" fill="#EA8693"/>
<path d="M72.465 1.60798C68.5266 2.3026 64.9267 4.91773 63.4363 9.14128L51.8254 42.0428C50.6934 45.2504 48.2242 47.8044 45.0546 49.0464L12.542 61.7857C4.19912 65.0546 2.5858 76.5311 9.69811 81.9639L37.4302 103.146C38.7655 104.165 39.8652 105.46 40.6543 106.943C41.4434 108.426 41.9033 110.062 42.0026 111.739L44.0695 146.557C44.5998 155.49 55.0178 160.571 62.4006 155.486L62.4008 155.485L91.1516 135.675V135.675C92.5356 134.72 94.1096 134.075 95.7649 133.783C97.421 133.491 99.1204 133.559 100.747 133.983L134.538 142.762C143.214 145.017 151.266 136.677 148.71 128.101V128.102L138.747 94.6752C138.267 93.0655 138.14 91.3714 138.374 89.7073C138.609 88.0439 139.199 86.4508 140.106 85.0366V85.0359L158.922 55.6432L158.921 55.643C163.748 48.1049 158.308 37.8727 149.35 37.6548L114.442 36.8067C111.039 36.7241 107.845 35.1689 105.685 32.542L83.5243 5.59622C80.6798 2.1375 76.4025 0.911646 72.4639 1.60632M73.524 7.61985C75.3138 7.30419 77.2682 7.92251 78.6519 9.60463L100.813 36.5497C104.136 40.591 109.059 42.987 114.288 43.1142L149.196 43.9623C153.568 44.0684 155.955 48.5752 153.608 52.2415L134.793 81.6342C131.97 86.0407 131.207 91.4637 132.7 96.4774L142.664 129.903C143.904 134.066 140.357 137.754 136.124 136.655L102.333 127.875C97.2695 126.559 91.8787 127.51 87.5706 130.479L58.8201 150.289C55.2179 152.771 50.6235 150.518 50.3657 146.182L48.2991 111.364C47.989 106.14 45.4163 101.307 41.2582 98.1305L13.5262 76.9486C10.0673 74.3066 10.7705 69.255 14.8415 67.6592L47.354 54.9198C52.2253 53.011 56.0317 49.0755 57.7732 44.1408V44.1406L69.3841 11.2392C70.1089 9.18536 71.7339 7.93568 73.5237 7.62" fill="#151515"/>
<path d="M94.2466 96.2752C94.6331 96.1262 94.9863 95.9022 95.2868 95.6167C95.5865 95.3311 95.8278 94.9889 95.995 94.6103C96.1629 94.2309 96.2544 93.8232 96.2647 93.4091C96.2749 92.995 96.2032 92.5826 96.0541 92.1961C95.6645 91.1889 95.081 90.2678 94.3358 89.4854C93.5905 88.703 92.6986 88.076 91.7105 87.6391L91.7097 87.6383C90.7232 87.2013 89.6602 86.9631 88.5806 86.9371L88.5798 86.9371L88.5782 86.9371C87.4994 86.9119 86.4261 87.0988 85.4191 87.4876L85.4183 87.4876C84.4112 87.8764 83.4902 88.4601 82.7087 89.2054L82.7079 89.2054L82.7079 89.2062C81.9264 89.9507 81.2994 90.8427 80.8625 91.8294C80.4241 92.8176 80.1859 93.8831 80.1607 94.9636C80.141 95.7996 80.454 96.6096 81.0313 97.2153C81.6093 97.8203 82.4035 98.1712 83.2402 98.1909C83.6542 98.2012 84.0658 98.1286 84.4522 97.9796C84.8387 97.8297 85.192 97.6057 85.4916 97.3194C85.7913 97.0339 86.0318 96.6916 86.199 96.3123C86.3662 95.9337 86.4577 95.5252 86.4671 95.1111C86.4734 94.8611 86.5286 94.6142 86.6304 94.3855L86.6304 94.3847L86.6311 94.3831C86.7329 94.1536 86.8788 93.9462 87.0601 93.7727C87.2423 93.5992 87.456 93.4635 87.6902 93.3736L87.6918 93.3728C87.9268 93.2821 88.1768 93.2388 88.4284 93.2443C88.6791 93.2506 88.9268 93.3066 89.1562 93.4083L89.1578 93.4083L89.1586 93.4091C89.3881 93.5109 89.5947 93.656 89.7682 93.8374L89.7682 93.8382C89.9417 94.0203 90.0773 94.2341 90.168 94.4691C90.317 94.8556 90.541 95.2089 90.8265 95.5086C91.1128 95.8083 91.4542 96.0496 91.8335 96.2168C92.2121 96.3848 92.6206 96.4763 93.0346 96.4866C93.4486 96.4968 93.8602 96.4251 94.2466 96.2752Z" fill="#151515"/>
<path d="M57.9533 73.0024C57.3459 73.0268 56.7591 73.2349 56.2673 73.6003C55.7755 73.9659 55.4006 74.4723 55.1902 75.0557C55.0504 75.4429 54.9865 75.8549 55.0024 76.2676C55.0182 76.6803 55.1132 77.0859 55.2822 77.4609C55.4511 77.8358 55.6906 78.1731 55.987 78.4529C56.2834 78.7336 56.6309 78.9513 57.0096 79.0944L59.2198 79.9284L57.422 81.4857C56.7999 82.025 56.4124 82.7946 56.3449 83.6255C56.2775 84.4564 56.5355 85.281 57.0623 85.9177C57.589 86.5537 58.3414 86.9499 59.1538 87.019C59.9661 87.0882 60.7721 86.8241 61.3942 86.2856L67.2135 81.2452C67.6234 80.8898 67.9353 80.4307 68.1178 79.9143C68.3003 79.397 68.3474 78.8405 68.2541 78.2988C68.1608 77.758 67.9305 77.251 67.5862 76.8296C67.2418 76.4075 66.7954 76.0852 66.2915 75.895L59.1378 73.1945C58.7592 73.0515 58.3567 72.9862 57.9533 73.0024Z" fill="#151515"/>
<path d="M72.3475 85.0274C72.9549 85.003 73.5417 84.7949 74.0334 84.4295C74.5253 84.0639 74.9001 83.5574 75.1106 82.9741C75.2504 82.5868 75.3142 82.1749 75.2984 81.7622C75.2826 81.3495 75.1875 80.9439 75.0186 80.5689C74.8497 80.194 74.6101 79.8567 74.3138 79.5769C74.0174 79.2962 73.6699 79.0785 73.2912 78.9354L71.081 78.1014L72.8788 76.5441C73.5009 76.0048 73.8884 75.2352 73.9558 74.4043C74.0233 73.5734 73.7653 72.7488 73.2385 72.1121C72.7118 71.4761 71.9594 71.0799 71.147 71.0107C70.3346 70.9416 69.5287 71.2057 68.9066 71.7442L63.0873 76.7846C62.6773 77.14 62.3655 77.599 62.183 78.1155C62.0004 78.6328 61.9534 79.1893 62.0467 79.7309C62.14 80.2718 62.3703 80.7788 62.7146 81.2002C63.059 81.6223 63.5054 81.9446 64.0093 82.1348L71.163 84.8353C71.5416 84.9783 71.9441 85.0436 72.3475 85.0274Z" fill="#151515"/>
<path d="M98.9533 65.0024C98.3459 65.0268 97.7591 65.2349 97.2673 65.6003C96.7755 65.9659 96.4006 66.4723 96.1902 67.0557C96.0504 67.4429 95.9865 67.8549 96.0024 68.2676C96.0182 68.6803 96.1132 69.0859 96.2822 69.4609C96.4511 69.8358 96.6906 70.1731 96.987 70.4529C97.2834 70.7336 97.6309 70.9513 98.0096 71.0944L100.22 71.9284L98.422 73.4857C97.7999 74.025 97.4124 74.7946 97.3449 75.6255C97.2775 76.4564 97.5355 77.281 98.0623 77.9177C98.589 78.5537 99.3414 78.9499 100.154 79.019C100.966 79.0882 101.772 78.8241 102.394 78.2856L108.213 73.2452C108.623 72.8898 108.935 72.4307 109.118 71.9143C109.3 71.397 109.347 70.8405 109.254 70.2988C109.161 69.758 108.931 69.251 108.586 68.8296C108.242 68.4075 107.795 68.0852 107.291 67.895L100.138 65.1945C99.7592 65.0515 99.3567 64.9862 98.9533 65.0024Z" fill="#151515"/>
<path d="M113.347 77.0274C113.955 77.003 114.542 76.7949 115.033 76.4295C115.525 76.0639 115.9 75.5574 116.111 74.9741C116.25 74.5868 116.314 74.1749 116.298 73.7622C116.283 73.3495 116.188 72.9439 116.019 72.5689C115.85 72.194 115.61 71.8567 115.314 71.5769C115.017 71.2962 114.67 71.0785 114.291 70.9354L112.081 70.1014L113.879 68.5441C114.501 68.0048 114.888 67.2352 114.956 66.4043C115.023 65.5734 114.765 64.7488 114.239 64.1121C113.712 63.4761 112.959 63.0799 112.147 63.0107C111.335 62.9416 110.529 63.2057 109.907 63.7442L104.087 68.7846C103.677 69.14 103.366 69.599 103.183 70.1155C103 70.6328 102.953 71.1893 103.047 71.7309C103.14 72.2718 103.37 72.7788 103.715 73.2002C104.059 73.6223 104.505 73.9446 105.009 74.1348L112.163 76.8353C112.542 76.9783 112.944 77.0436 113.347 77.0274Z" fill="#151515"/>
</svg>
