<svg width="1920" height="1080" viewBox="0 0 1920 1080" fill="none" xmlns="http://www.w3.org/2000/svg">
<g clip-path="url(#clip0_1_2)">
<circle cx="996" cy="138" r="11" fill="#D9D9D9"/>
<circle cx="684" cy="439" r="11" fill="#D9D9D9"/>
<circle cx="869" cy="956" r="11" fill="#D9D9D9"/>
<circle cx="1265" cy="525" r="11" fill="#D9D9D9"/>
<path d="M161.5 349L164.306 357.637H173.388L166.041 362.975L168.847 371.613L161.5 366.275L154.153 371.613L156.959 362.975L149.612 357.637H158.694L161.5 349Z" fill="#FEB95F"/>
<path d="M231.5 280L234.306 288.637H243.388L236.041 293.975L238.847 302.613L231.5 297.275L224.153 302.613L226.959 293.975L219.612 288.637H228.694L231.5 280Z" fill="#FFE9CD"/>
<path d="M269.5 540L272.306 548.637H281.388L274.041 553.975L276.847 562.613L269.5 557.275L262.153 562.613L264.959 553.975L257.612 548.637H266.694L269.5 540Z" fill="#FEB95F"/>
<path d="M313.5 439L316.306 447.637H325.388L318.041 452.975L320.847 461.613L313.5 456.275L306.153 461.613L308.959 452.975L301.612 447.637H310.694L313.5 439Z" fill="#FEB95F"/>
<path d="M414.5 73L417.306 81.6373H426.388L419.041 86.9754L421.847 95.6127L414.5 90.2746L407.153 95.6127L409.959 86.9754L402.612 81.6373H411.694L414.5 73Z" fill="#FEB95F"/>
<path d="M526.5 102L529.306 110.637H538.388L531.041 115.975L533.847 124.613L526.5 119.275L519.153 124.613L521.959 115.975L514.612 110.637H523.694L526.5 102Z" fill="#FEB95F"/>
<path d="M80.5 48L83.3064 56.6373H92.3882L85.0409 61.9754L87.8473 70.6127L80.5 65.2746L73.1527 70.6127L75.9591 61.9754L68.6118 56.6373H77.6936L80.5 48Z" fill="#FEB95F"/>
<path d="M427.5 984L430.306 992.637H439.388L432.041 997.975L434.847 1006.61L427.5 1001.27L420.153 1006.61L422.959 997.975L415.612 992.637H424.694L427.5 984Z" fill="#FEB95F"/>
<path d="M599.5 863L602.306 871.637H611.388L604.041 876.975L606.847 885.613L599.5 880.275L592.153 885.613L594.959 876.975L587.612 871.637H596.694L599.5 863Z" fill="#FEB95F"/>
<path d="M1019.5 719L1022.31 727.637H1031.39L1024.04 732.975L1026.85 741.613L1019.5 736.275L1012.15 741.613L1014.96 732.975L1007.61 727.637H1016.69L1019.5 719Z" fill="#FFF1DF"/>
<path d="M947.5 647L950.306 655.637H959.388L952.041 660.975L954.847 669.613L947.5 664.275L940.153 669.613L942.959 660.975L935.612 655.637H944.694L947.5 647Z" fill="#FEB95F"/>
<path d="M1044.5 511L1047.31 519.637H1056.39L1049.04 524.975L1051.85 533.613L1044.5 528.275L1037.15 533.613L1039.96 524.975L1032.61 519.637H1041.69L1044.5 511Z" fill="#FEB95F"/>
<path d="M1451.5 255L1454.31 263.637H1463.39L1456.04 268.975L1458.85 277.613L1451.5 272.275L1444.15 277.613L1446.96 268.975L1439.61 263.637H1448.69L1451.5 255Z" fill="#FEB95F"/>
<path d="M1543.5 416L1546.31 424.637H1555.39L1548.04 429.975L1550.85 438.613L1543.5 433.275L1536.15 438.613L1538.96 429.975L1531.61 424.637H1540.69L1543.5 416Z" fill="#FEB95F"/>
<path d="M1596.5 647L1599.31 655.637H1608.39L1601.04 660.975L1603.85 669.613L1596.5 664.275L1589.15 669.613L1591.96 660.975L1584.61 655.637H1593.69L1596.5 647Z" fill="#FEB95F"/>
<path d="M1738.5 920L1741.31 928.637H1750.39L1743.04 933.975L1745.85 942.613L1738.5 937.275L1731.15 942.613L1733.96 933.975L1726.61 928.637H1735.69L1738.5 920Z" fill="#FEB95F"/>
<path d="M1783.5 863L1786.31 871.637H1795.39L1788.04 876.975L1790.85 885.613L1783.5 880.275L1776.15 885.613L1778.96 876.975L1771.61 871.637H1780.69L1783.5 863Z" fill="#FEB95F"/>
<path d="M1654.5 814L1657.31 822.637H1666.39L1659.04 827.975L1661.85 836.613L1654.5 831.275L1647.15 836.613L1649.96 827.975L1642.61 822.637H1651.69L1654.5 814Z" fill="#FEB95F"/>
<path d="M551.5 324L554.306 332.637H563.388L556.041 337.975L558.847 346.613L551.5 341.275L544.153 346.613L546.959 337.975L539.612 332.637H548.694L551.5 324Z" fill="#FEB95F"/>
<path d="M313.5 439L316.306 447.637H325.388L318.041 452.975L320.847 461.613L313.5 456.275L306.153 461.613L308.959 452.975L301.612 447.637H310.694L313.5 439Z" fill="#FEB95F"/>
<circle cx="1613" cy="354" r="4" fill="#FEB95F"/>
<circle cx="1480" cy="229" r="4" fill="#FEB95F"/>
<circle cx="1421" cy="187" r="4" fill="#FEB95F"/>
<circle cx="1053" cy="464" r="4" fill="#FEB95F"/>
<circle cx="981" cy="643" r="4" fill="#FEB95F"/>
<circle cx="587" cy="324" r="4" fill="#FEB95F"/>
<circle cx="253" cy="225" r="4" fill="#FFE9CD"/>
<circle cx="84" cy="127" r="4" fill="#FEB95F"/>
<circle cx="431" cy="145" r="4" fill="#FEB95F"/>
<circle cx="379" cy="515" r="4" fill="#FEB95F"/>
<path d="M388.703 441.993L397.67 443.437L401.813 435.356L403.211 444.329L412.177 445.773L404.075 449.875L405.473 458.849L399.067 452.411L390.965 456.513L395.109 448.432L388.703 441.993Z" fill="#FFF7ED"/>
<path d="M388.703 441.993L397.67 443.437L401.813 435.356L403.211 444.329L412.177 445.773L404.075 449.875L405.473 458.849L399.067 452.411L390.965 456.513L395.109 448.432L388.703 441.993Z" fill="#FFF7ED"/>
<circle cx="486.217" cy="418.384" r="4" transform="rotate(-62.8539 486.217 418.384)" fill="#FFF7ED"/>
<circle cx="240" cy="715" r="4" fill="#FEB95F"/>
<circle cx="342" cy="759" r="4" fill="#FEB95F"/>
<path d="M687.248 582.967L695.829 585.942L701.31 578.7L701.132 587.781L709.713 590.755L701.022 593.392L700.845 602.472L695.651 595.022L686.961 597.659L692.442 590.417L687.248 582.967Z" fill="#FEB95F"/>
<path d="M662.544 661.967L671.125 664.942L676.605 657.7L676.428 666.781L685.008 669.755L676.318 672.392L676.14 681.472L670.947 674.022L662.256 676.659L667.737 669.417L662.544 661.967Z" fill="#FEB95F"/>
<circle cx="605.603" cy="653.83" r="4" transform="rotate(-52.8787 605.603 653.83)" fill="#FEB95F"/>
<path d="M731.248 1006.97L739.829 1009.94L745.31 1002.7L745.132 1011.78L753.713 1014.76L745.022 1017.39L744.845 1026.47L739.651 1019.02L730.961 1021.66L736.442 1014.42L731.248 1006.97Z" fill="#FEB95F"/>
<path d="M706.544 1085.97L715.125 1088.94L720.605 1081.7L720.428 1090.78L729.008 1093.76L720.318 1096.39L720.14 1105.47L714.947 1098.02L706.256 1100.66L711.737 1093.42L706.544 1085.97Z" fill="#FEB95F"/>
<circle cx="649.603" cy="1077.83" r="4" transform="rotate(-52.8787 649.603 1077.83)" fill="#FEB95F"/>
<circle cx="178" cy="880" r="4" fill="#FEB95F"/>
<circle cx="178" cy="880" r="4" fill="#FEB95F"/>
<circle cx="145" cy="217" r="4" fill="#FFE9CD"/>
<circle cx="1049" cy="759" r="4" fill="#FFF1DF"/>
<circle cx="1024" cy="789" r="4" fill="#FFF1DF"/>
<circle cx="952" cy="781" r="4" fill="#FEB95F"/>
<circle cx="989" cy="844" r="4" fill="#FEB95F"/>
<circle cx="1061" cy="898" r="4" fill="#FEB95F"/>
<circle cx="1527" cy="694" r="4" fill="#FEB95F"/>
<path d="M1315.34 838.64L1324.27 837.033L1325.51 828.036L1329.8 836.041L1338.74 834.434L1332.45 840.988L1336.74 848.992L1328.56 845.038L1322.28 851.592L1323.51 842.594L1315.34 838.64Z" fill="#FEB95F"/>
<path d="M1234.22 900.185L1243.16 898.578L1244.39 889.581L1248.68 897.586L1257.62 895.979L1251.33 902.533L1255.62 910.538L1247.45 906.583L1241.16 913.137L1242.39 904.139L1234.22 900.185Z" fill="#FEB95F"/>
<circle cx="1358.97" cy="814.85" r="4" transform="rotate(-82.1878 1358.97 814.85)" fill="#FEB95F"/>
<path d="M1369.23 1008.84L1367.86 999.864L1358.9 998.394L1367.01 994.315L1365.64 985.338L1372.03 991.794L1380.14 987.716L1375.98 995.785L1382.36 1002.24L1373.4 1000.77L1369.23 1008.84Z" fill="#FEB95F"/>
<circle cx="1346.59" cy="964.595" r="4" transform="rotate(-170.687 1346.59 964.595)" fill="#FEB95F"/>
<path d="M1767.5 321L1770.31 329.637H1779.39L1772.04 334.975L1774.85 343.613L1767.5 338.275L1760.15 343.613L1762.96 334.975L1755.61 329.637H1764.69L1767.5 321Z" fill="#FEB95F"/>
<path d="M1695.5 249L1698.31 257.637H1707.39L1700.04 262.975L1702.85 271.613L1695.5 266.275L1688.15 271.613L1690.96 262.975L1683.61 257.637H1692.69L1695.5 249Z" fill="#FEB95F"/>
<path d="M1792.5 113L1795.31 121.637H1804.39L1797.04 126.975L1799.85 135.613L1792.5 130.275L1785.15 135.613L1787.96 126.975L1780.61 121.637H1789.69L1792.5 113Z" fill="#FEB95F"/>
<circle cx="1801" cy="66" r="4" fill="#FEB95F"/>
<circle cx="1729" cy="245" r="4" fill="#FEB95F"/>
<circle cx="1797" cy="361" r="4" fill="#FEB95F"/>
<path d="M847.519 246.215L855.931 249.639L861.787 242.698L861.129 251.756L869.541 255.18L860.723 257.354L860.065 266.412L855.273 258.697L846.455 260.871L852.311 253.929L847.519 246.215Z" fill="#FEB95F"/>
<path d="M746.06 254.821L754.472 258.246L760.328 251.304L759.67 260.362L768.082 263.786L759.264 265.96L758.606 275.018L753.814 267.304L744.996 269.477L750.852 262.536L746.06 254.821Z" fill="#FEB95F"/>
<circle cx="764.604" cy="226.637" r="4" transform="rotate(-49.8486 764.604 226.637)" fill="#FEB95F"/>
<circle cx="897.115" cy="249.459" r="4" transform="rotate(-49.8486 897.115 249.459)" fill="#FEB95F"/>
<circle cx="1667" cy="740" r="4" fill="#FEB95F"/>
</g>
<defs>
<clipPath id="clip0_1_2">
<rect width="1920" height="1080" fill="white"/>
</clipPath>
</defs>
</svg>
